<svg width="40" height="40" viewBox="0 0 40 40" fill="none" xmlns="http://www.w3.org/2000/svg">
<path fill-rule="evenodd" clip-rule="evenodd" d="M4 10.6667C4 7.72114 6.38781 5.33333 9.33333 5.33333V6.66672C9.33333 8.87585 11.1242 10.6667 13.3333 10.6667H26.6667C28.8758 10.6667 30.6667 8.87585 30.6667 6.66672V5.33333C33.6122 5.33333 36 7.72114 36 10.6667V33.3333C36 36.2788 33.6122 38.6667 30.6667 38.6667H9.33333C6.38782 38.6667 4 36.2788 4 33.3333V10.6667ZM12 17.3333C11.2636 17.3333 10.6667 17.9303 10.6667 18.6667C10.6667 19.403 11.2636 20 12 20H28C28.7364 20 29.3333 19.403 29.3333 18.6667C29.3333 17.9303 28.7364 17.3333 28 17.3333H12ZM12 25.3333C11.2636 25.3333 10.6667 25.9303 10.6667 26.6667C10.6667 27.403 11.2636 28 12 28H20C20.7364 28 21.3333 27.403 21.3333 26.6667C21.3333 25.9303 20.7364 25.3333 20 25.3333H12Z" fill="#16A34A"/>
<path d="M10.6665 5.33333C10.6665 3.12419 12.4574 1.33333 14.6665 1.33333H25.3332C27.5423 1.33333 29.3332 3.12419 29.3332 5.33333C29.3332 7.54247 27.5423 9.33333 25.3332 9.33333H14.6665C12.4574 9.33333 10.6665 7.54247 10.6665 5.33333Z" fill="#84CC16"/>
</svg>
